<svg version="1.2" xmlns="http://www.w3.org/2000/svg" viewBox="0 0 30 18" width="30" height="18"><style></style><path fill-rule="evenodd" d="m29 16.5c0.3 0 0.5 0.3 0.5 0.5 0 0.3-0.2 0.5-0.5 0.5h-28c-0.3 0-0.5-0.2-0.5-0.5 0-0.2 0.2-0.5 0.5-0.5h3.9v-2c-1.6-0.1-3-1.1-3.8-2.5-1-1.8-0.6-4.1 0.3-6.1 1.4-2.9 3.7-5.3 3.7-5.3q0.1-0.1 0.3-0.1 0.3 0 0.4 0.1c0 0 2.3 2.5 3.6 5.3 1 2.1 1.4 4.3 0.4 6.1-0.8 1.4-2.2 2.4-3.9 2.5v2h6.7v-14.4c0-0.3 0.2-0.5 0.5-0.5h2.1c0.3 0 0.5 0.2 0.5 0.5v1.4h9.3v-1.4c0-0.3 0.2-0.5 0.5-0.5h2.2c0.2 0 0.5 0.2 0.5 0.5v14.4zm-1.9 0v-13.9h-1.1v13.9zm-2.2-12h-9.3v12h9.3zm-10.3 12.1v-14h-1.1v14zm-8.8-3.1c1.2-0.1 2.3-0.8 3-2 0.8-1.5 0.4-3.4-0.4-5.1-1-2.1-2.4-3.9-3.1-4.7-0.7 0.8-2.2 2.6-3.1 4.7-0.8 1.7-1.3 3.6-0.4 5.1 0.6 1.1 1.7 1.9 3 2v-3.9c0-0.3 0.2-0.5 0.5-0.5 0.3 0 0.5 0.2 0.5 0.5z"/></svg>