<svg xmlns="http://www.w3.org/2000/svg" xmlns:xlink="http://www.w3.org/1999/xlink" version="1.1" x="0px" y="0px" viewBox="0 0 496 620" style="enable-background:new 0 0 496 496;" xml:space="preserve"><g><path d="M184,416c22.804,0,40-10.317,40-24s-17.196-24-40-24s-40,10.317-40,24S161.196,416,184,416z M184,384   c15.488,0,24,6.009,24,8s-8.512,8-24,8s-24-6.009-24-8S168.512,384,184,384z"/><path d="M216,80c22.804,0,40-10.318,40-24s-17.196-24-40-24s-40,10.318-40,24S193.196,80,216,80z M216,48c15.488,0,24,6.009,24,8   s-8.512,8-24,8s-24-6.009-24-8S200.512,48,216,48z"/><path d="M328,256c-13.233,0-24,10.767-24,24s10.767,24,24,24s24-10.767,24-24S341.233,256,328,256z M328,288c-4.411,0-8-3.589-8-8   s3.589-8,8-8s8,3.589,8,8S332.411,288,328,288z"/><path d="M384,280c0-30.879-25.121-56-56-56s-56,25.121-56,56s25.121,56,56,56S384,310.879,384,280z M328,320   c-22.056,0-40-17.944-40-40s17.944-40,40-40s40,17.944,40,40S350.056,320,328,320z"/><path d="M400,128.232V56c0-36.764-92.563-56-184-56S32,19.236,32,56v303.027C12.156,367.664,0,378.68,0,392v48   c0,36.765,92.563,56,184,56c88.694,0,178.444-18.1,183.748-52.74c34.99-8.509,66.692-28.33,89.806-56.295   C482.346,356.969,496,318.981,496,280C496,213.117,456.709,155.244,400,128.232z M93.654,29.777C126.229,20.893,169.68,16,216,16   s89.771,4.893,122.346,13.777C369.884,38.378,384,49.145,384,56s-14.116,17.622-45.654,26.223C305.771,91.107,262.32,96,216,96   s-89.771-4.893-122.346-13.777C62.116,73.622,48,62.855,48,56S62.116,38.378,93.654,29.777z M48,80.332   C78.375,101.204,147.502,112,216,112s137.625-10.796,168-31.668v41.277c-17.525-6.214-36.372-9.609-56-9.609   c-36.677,0-70.639,11.822-98.295,31.844C225.16,143.941,220.568,144,216,144c-46.32,0-89.771-4.893-122.346-13.777   C62.116,121.622,48,110.855,48,104V80.332z M48,128.332c29.573,20.322,95.883,31.089,162.58,31.643   c-9.577,9.371-18.039,19.874-25.171,31.293C96.877,186.993,48,165.529,48,152V128.332z M48,176.444   c7.957,5.417,18.858,10.312,32.687,14.653c25.316,7.948,59.077,13.445,96.111,15.719c-4.802,9.88-8.666,20.297-11.469,31.137   C85.341,231.358,48,211.639,48,200V176.444z M48,224.457c23.371,16.013,68.987,25.372,114.059,29.274   C160.708,262.293,160,271.065,160,280c0,1.837,0.04,3.667,0.098,5.495C83.695,278.461,48,259.273,48,248V224.457z M48,272.384   c23.338,15.976,68.807,25.369,113.376,29.288c1.425,11.104,3.961,21.982,7.578,32.566c-33.608-2.578-63.848-7.914-86.142-15.266   C57.117,310.5,48,301.302,48,296V272.384z M48,320.392c13.051,8.927,33.009,15.779,55.815,20.774   c-20.743,2.828-39.824,6.806-55.815,11.91V320.392z M61.654,365.777C94.229,356.893,137.68,352,184,352   s89.771,4.893,122.346,13.777C337.884,374.378,352,385.145,352,392s-14.116,17.622-45.654,26.223   C273.771,427.107,230.32,432,184,432s-89.771-4.893-122.346-13.777C30.116,409.622,16,398.855,16,392   S30.116,374.378,61.654,365.777z M208,280c0-66.168,53.832-120,120-120s120,53.832,120,120c0,51.274-32.413,96.415-80,113.176V392   c0-31.585-68.317-50.231-145.545-54.859C212.989,319.679,208,300.015,208,280z M306.346,466.223   C273.771,475.107,230.32,480,184,480s-89.771-4.893-122.346-13.777C30.116,457.622,16,446.855,16,440v-23.668   C46.375,437.204,115.502,448,184,448s137.625-10.796,168-31.668V440C352,446.855,337.884,457.622,306.346,466.223z M368,426.682   v-16.664c56.831-17.424,96-70.017,96-130.018c0-74.991-61.01-136-136-136s-136,61.009-136,136c0,19.506,4.19,38.721,12.19,56.315   c-5.828-0.181-11.679-0.283-17.53-0.307C179.591,318.207,176,299.393,176,280c0-83.813,68.187-152,152-152s152,68.187,152,152   C480,348.7,433.457,408.875,368,426.682z"/></g></svg>